<?xml version="1.0" encoding="utf-8"?>
<svg xmlns="http://www.w3.org/2000/svg" style="margin: auto; background: none; display: block; shape-rendering: auto;" width="280" height="250" preserveAspectRatio="xMidYMid">
<style type="text/css">
  text {
    text-anchor: middle; font-size: 98px; opacity: 0;
  }
</style>
<g style="transform-origin: 140px 125px; transform: scale(1.24051);">
<g transform="translate(140,125)">
  <g transform="translate(0,0)"><g class="path" style="transform: matrix(1, 0, 0, 1, 0, 0); transform-origin: -82.63px -5.4034px; animation: 0.671141s linear -0.379674s infinite normal forwards running bounce-c3da8af6-79dd-4b8b-9838-2b199dbaa99a;"><path d="M36.65-14.47L36.65-12.81L36.65-12.81Q36.65-9.99 35.51-7.52L35.51-7.52L35.51-7.52Q34.37-5.05 32.46-3.20L32.46-3.20L32.46-3.20Q30.55-1.35 28.02-0.29L28.02-0.29L28.02-0.29Q25.50 0.77 22.68 0.77L22.68 0.77L18.71 0.77L18.71 0.77Q15.89 0.77 13.37-0.29L13.37-0.29L13.37-0.29Q10.84-1.35 8.93-3.20L8.93-3.20L8.93-3.20Q7.02-5.05 5.88-7.52L5.88-7.52L5.88-7.52Q4.74-9.99 4.74-12.81L4.74-12.81L4.74-15.01L9.72-15.82L9.72-12.81L9.72-12.81Q9.72-10.96 10.47-9.35L10.47-9.35L10.47-9.35Q11.23-7.75 12.50-6.54L12.50-6.54L12.50-6.54Q13.77-5.32 15.45-4.63L15.45-4.63L15.45-4.63Q17.13-3.93 18.98-3.93L18.98-3.93L22.45-3.93L22.45-3.93Q24.30-3.93 25.96-4.63L25.96-4.63L25.96-4.63Q27.62-5.32 28.89-6.54L28.89-6.54L28.89-6.54Q30.17-7.75 30.92-9.35L30.92-9.35L30.92-9.35Q31.67-10.96 31.67-12.81L31.67-12.81L31.67-14.47L31.67-14.47Q31.67-17.32 30.55-19.21L30.55-19.21L30.55-19.21Q29.43-21.10 27.58-22.43L27.58-22.43L27.58-22.43Q25.73-23.76 23.40-24.69L23.40-24.69L23.40-24.69Q21.06-25.61 18.59-26.54L18.59-26.54L18.59-26.54Q16.12-27.46 13.79-28.58L13.79-28.58L13.79-28.58Q11.46-29.70 9.60-31.38L9.60-31.38L9.60-31.38Q7.75-33.06 6.63-35.49L6.63-35.49L6.63-35.49Q5.52-37.92 5.52-41.47L5.52-41.47L5.52-42.51L5.52-42.51Q5.52-45.32 6.58-47.79L6.58-47.79L6.58-47.79Q7.64-50.26 9.49-52.11L9.49-52.11L9.49-52.11Q11.34-53.97 13.83-55.03L13.83-55.03L13.83-55.03Q16.32-56.09 19.13-56.09L19.13-56.09L22.68-56.09L22.68-56.09Q25.50-56.09 27.97-55.03L27.97-55.03L27.97-55.03Q30.44-53.97 32.29-52.11L32.29-52.11L32.29-52.11Q34.14-50.26 35.20-47.79L35.20-47.79L35.20-47.79Q36.26-45.32 36.26-42.51L36.26-42.51L36.26-41.08L31.28-40.27L31.28-42.51L31.28-42.51Q31.28-44.36 30.59-45.96L30.59-45.96L30.59-45.96Q29.90-47.56 28.70-48.76L28.70-48.76L28.70-48.76Q27.50-49.95 25.90-50.65L25.90-50.65L25.90-50.65Q24.30-51.34 22.45-51.34L22.45-51.34L19.36-51.34L19.36-51.34Q17.51-51.34 15.91-50.65L15.91-50.65L15.91-50.65Q14.31-49.95 13.10-48.76L13.10-48.76L13.10-48.76Q11.88-47.56 11.19-45.96L11.19-45.96L11.19-45.96Q10.49-44.36 10.49-42.51L10.49-42.51L10.49-41.47L10.49-41.47Q10.49-38.81 11.61-36.99L11.61-36.99L11.61-36.99Q12.73-35.18 14.58-33.89L14.58-33.89L14.58-33.89Q16.43-32.60 18.77-31.65L18.77-31.65L18.77-31.65Q21.10-30.71 23.57-29.72L23.57-29.72L23.57-29.72Q26.04-28.74 28.37-27.56L28.37-27.56L28.37-27.56Q30.71-26.38 32.56-24.67L32.56-24.67L32.56-24.67Q34.41-22.95 35.53-20.48L35.53-20.48L35.53-20.48Q36.65-18.01 36.65-14.47L36.65-14.47" fill="#01ba34" stroke="none" stroke-width="none" transform="translate(-103.32501220703125,22.256599469866075)" style="fill: rgb(1, 186, 52);"></path></g><g class="path" style="transform: matrix(1, 0, 0, 1, 0, 0); transform-origin: -44.385px -5.4034px; animation: 0.671141s linear -0.316395s infinite normal forwards running bounce-c3da8af6-79dd-4b8b-9838-2b199dbaa99a;"><path d="M72.13 0L67.39 0L67.39-28.93L67.39-28.93Q67.39-30.36 66.85-31.61L66.85-31.61L66.85-31.61Q66.31-32.87 65.38-33.79L65.38-33.79L65.38-33.79Q64.46-34.72 63.20-35.26L63.20-35.26L63.20-35.26Q61.95-35.80 60.52-35.80L60.52-35.80L57.36-35.80L57.36-35.80Q55.93-35.80 54.68-35.26L54.68-35.26L54.68-35.26Q53.43-34.72 52.50-33.79L52.50-33.79L52.50-33.79Q51.57-32.87 51.03-31.61L51.03-31.61L51.03-31.61Q50.49-30.36 50.49-28.93L50.49-28.93L50.49 0L45.75 0L45.75-55.32L50.49-55.32L50.49-36.18L50.49-36.18Q52.11-38.11 54.39-39.19L54.39-39.19L54.39-39.19Q56.67-40.27 59.33-40.27L59.33-40.27L60.52-40.27L60.52-40.27Q62.91-40.27 65.04-39.36L65.04-39.36L65.04-39.36Q67.16-38.46 68.74-36.88L68.74-36.88L68.74-36.88Q70.32-35.30 71.23-33.17L71.23-33.17L71.23-33.17Q72.13-31.05 72.13-28.66L72.13-28.66L72.13 0" fill="#01ba34" stroke="none" stroke-width="none" transform="translate(-103.32501220703125,22.256599469866075)" style="fill: rgb(1, 186, 52);"></path></g><g class="path" style="transform: matrix(1, 0, 0, 1, 0, 0); transform-origin: -8.51001px 2.5066px; animation: 0.671141s linear -0.253116s infinite normal forwards running bounce-c3da8af6-79dd-4b8b-9838-2b199dbaa99a;"><path d="M108.01-10.84L108.01-10.84L108.01-10.84Q108.01-8.45 107.10-6.33L107.10-6.33L107.10-6.33Q106.19-4.20 104.61-2.62L104.61-2.62L104.61-2.62Q103.03-1.04 100.91-0.14L100.91-0.14L100.91-0.14Q98.79 0.77 96.40 0.77L96.40 0.77L93.23 0.77L93.23 0.77Q90.84 0.77 88.72-0.14L88.72-0.14L88.72-0.14Q86.60-1.04 85.02-2.62L85.02-2.62L85.02-2.62Q83.44-4.20 82.53-6.33L82.53-6.33L82.53-6.33Q81.62-8.45 81.62-10.84L81.62-10.84L81.62-28.66L81.62-28.66Q81.62-31.05 82.53-33.17L82.53-33.17L82.53-33.17Q83.44-35.30 85.02-36.88L85.02-36.88L85.02-36.88Q86.60-38.46 88.72-39.36L88.72-39.36L88.72-39.36Q90.84-40.27 93.23-40.27L93.23-40.27L96.40-40.27L96.40-40.27Q98.79-40.27 100.91-39.36L100.91-39.36L100.91-39.36Q103.03-38.46 104.61-36.88L104.61-36.88L104.61-36.88Q106.19-35.30 107.10-33.17L107.10-33.17L107.10-33.17Q108.01-31.05 108.01-28.66L108.01-28.66L108.01-10.84zM103.26-10.57L103.26-28.93L103.26-28.93Q103.26-30.36 102.72-31.61L102.72-31.61L102.72-31.61Q102.18-32.87 101.26-33.79L101.26-33.79L101.26-33.79Q100.33-34.72 99.08-35.26L99.08-35.26L99.08-35.26Q97.82-35.80 96.40-35.80L96.40-35.80L93.23-35.80L93.23-35.80Q91.81-35.80 90.55-35.26L90.55-35.26L90.55-35.26Q89.30-34.72 88.37-33.79L88.37-33.79L88.37-33.79Q87.45-32.87 86.91-31.61L86.91-31.61L86.91-31.61Q86.37-30.36 86.37-28.93L86.37-28.93L86.37-10.57L86.37-10.57Q86.37-9.14 86.91-7.89L86.91-7.89L86.91-7.89Q87.45-6.63 88.37-5.71L88.37-5.71L88.37-5.71Q89.30-4.78 90.55-4.24L90.55-4.24L90.55-4.24Q91.81-3.70 93.23-3.70L93.23-3.70L96.40-3.70L96.40-3.70Q97.82-3.70 99.08-4.24L99.08-4.24L99.08-4.24Q100.33-4.78 101.26-5.71L101.26-5.71L101.26-5.71Q102.18-6.63 102.72-7.89L102.72-7.89L102.72-7.89Q103.26-9.14 103.26-10.57L103.26-10.57" fill="#01ba34" stroke="none" stroke-width="none" transform="translate(-103.32501220703125,22.256599469866075)" style="fill: rgb(1, 186, 52);"></path></g><g class="path" style="transform: matrix(1, 0, 0, 1, 0, 0); transform-origin: 22.35px 2.1216px; animation: 0.671141s linear -0.189837s infinite normal forwards running bounce-c3da8af6-79dd-4b8b-9838-2b199dbaa99a;"><path d="M133.85-34.99L129.11-34.99L129.11-34.99Q127.68-34.99 126.43-34.45L126.43-34.45L126.43-34.45Q125.17-33.91 124.25-32.98L124.25-32.98L124.25-32.98Q123.32-32.06 122.78-30.80L122.78-30.80L122.78-30.80Q122.24-29.55 122.24-28.12L122.24-28.12L122.24 0L117.50 0L117.50-39.50L119.08-39.50L121.66-35.49L121.66-35.49Q123.28-37.69 125.73-38.98L125.73-38.98L125.73-38.98Q128.18-40.27 131.08-40.27L131.08-40.27L133.85-40.27L133.85-34.99" fill="#01ba34" stroke="none" stroke-width="none" transform="translate(-103.32501220703125,22.256599469866075)" style="fill: rgb(1, 186, 52);"></path></g><g class="path" style="transform: matrix(1, 0, 0, 1, 0, 0); transform-origin: 44.63px -2.6234px; animation: 0.671141s linear -0.126558s infinite normal forwards running bounce-c3da8af6-79dd-4b8b-9838-2b199dbaa99a;"><path d="M158.89 0L154.57 0L154.57 0Q152.41 0 150.50-0.81L150.50-0.81L150.50-0.81Q148.59-1.62 147.18-3.05L147.18-3.05L147.18-3.05Q145.77-4.47 144.94-6.36L144.94-6.36L144.94-6.36Q144.11-8.25 144.11-10.42L144.11-10.42L144.11-34.99L137.02-34.99L137.02-39.50L144.11-39.50L144.11-48.99L148.86-49.76L148.86-39.50L158.89-39.50L158.89-34.99L148.86-34.99L148.86-10.18L148.86-10.18Q148.86-8.99 149.30-7.97L149.30-7.97L149.30-7.97Q149.75-6.94 150.52-6.17L150.52-6.17L150.52-6.17Q151.29-5.40 152.33-4.96L152.33-4.96L152.33-4.96Q153.37-4.51 154.57-4.51L154.57-4.51L158.89-4.51L158.89 0" fill="#01ba34" stroke="none" stroke-width="none" transform="translate(-103.32501220703125,22.256599469866075)" style="fill: rgb(1, 186, 52);"></path></g><g class="path" style="transform: matrix(1, 0, 0, 1, 0, 0); transform-origin: 68.235px -5.4034px; animation: 0.671141s linear -0.063279s infinite normal forwards running bounce-c3da8af6-79dd-4b8b-9838-2b199dbaa99a;"><path d="M173.93 0L169.19 0L169.19-55.32L173.93-55.32L173.93 0" fill="#01ba34" stroke="none" stroke-width="none" transform="translate(-103.32501220703125,22.256599469866075)" style="fill: rgb(1, 186, 52);"></path></g><g class="path" style="transform: matrix(1, 0, 0, 1, 0, 0); transform-origin: 92.885px 10.4166px; animation: 0.671141s linear 0s infinite normal forwards running bounce-c3da8af6-79dd-4b8b-9838-2b199dbaa99a;"><path d="M211.39-39.50L191.41 15.82L186.81 15.82L193.84-3.39L181.03-39.50L185.77-39.50L196.07-9.57L196.23-7.52L196.38-9.57L206.64-39.50L211.39-39.50" fill="#01ba34" stroke="none" stroke-width="none" transform="translate(-103.32501220703125,22.256599469866075)" style="fill: rgb(1, 186, 52);"></path></g></g>
</g>
</g>
<style id="bounce-c3da8af6-79dd-4b8b-9838-2b199dbaa99a" data-anikit="">@keyframes bounce-c3da8af6-79dd-4b8b-9838-2b199dbaa99a
{
  0% {
    animation-timing-function: cubic-bezier(0.1361,0.2514,0.2175,0.8786);
    transform: translate(0,0px) scaleY(1);
  }
  37% {
    animation-timing-function: cubic-bezier(0.7674,0.1844,0.8382,0.7157);
    transform: translate(0,-39.96px) scaleY(1);
  }
  72% {
    animation-timing-function: cubic-bezier(0.1118,0.2149,0.2172,0.941);
    transform: translate(0,0px) scaleY(1);
  }
  87% {
    animation-timing-function: cubic-bezier(0.7494,0.2259,0.8209,0.6963);
    transform: translate(0,19.900000000000002px) scaleY(0.602);
  }
  100% {
    transform: translate(0,0px) scaleY(1);
  }
}</style></svg>